<svg width="74" height="71" viewBox="0 0 74 71" fill="none" xmlns="http://www.w3.org/2000/svg">
<path d="M27.8195 23.4781L27.438 26.1372C27.7956 26.1883 28.1599 26.1669 28.509 26.074C28.8581 25.9812 29.1849 25.8189 29.4699 25.5969C29.7549 25.3749 29.9922 25.0977 30.1677 24.782C30.3431 24.4662 30.4531 24.1182 30.491 23.759L27.8195 23.4781ZM37.7343 65.3557C37.0209 65.3368 36.3292 65.6021 35.8114 66.0932C35.2935 66.5843 34.992 67.261 34.9731 67.9744C34.9542 68.6879 35.2195 69.3796 35.7106 69.8974C36.2017 70.4152 36.8784 70.7167 37.5919 70.7356L37.7343 65.3557ZM17.9379 67.109C18.2618 67.2492 18.6102 67.3241 18.9631 67.3297C19.316 67.3352 19.6666 67.2712 19.9947 67.1413C20.3229 67.0113 20.6222 66.818 20.8757 66.5724C21.1291 66.3268 21.3317 66.0336 21.4719 65.7097C21.6121 65.3858 21.6871 65.0374 21.6926 64.6845C21.6981 64.3316 21.6341 63.9811 21.5042 63.6529C21.3742 63.3248 21.1809 63.0254 20.9353 62.7719C20.6897 62.5185 20.3965 62.3159 20.0726 62.1757L17.9379 67.109ZM9.67971 54.1285C4.9453 48.0507 4.40744 40.2755 7.42587 34.4767C10.3599 28.8436 16.9123 24.6252 27.438 26.1372L28.2031 20.8219C15.7189 19.0231 6.77922 24.0837 2.6583 31.9949C-1.36972 39.7339 -0.532575 49.7651 5.4394 57.4316L9.67971 54.1285ZM48.7457 70.7682C51.0855 70.7806 53.5871 70.785 55.8796 70.4801C58.172 70.1751 60.5513 69.5209 62.5018 68.0014L59.1987 63.7611C58.3224 64.4438 57.0292 64.9061 55.1679 65.1523C53.306 65.4035 51.1786 65.4073 48.7778 65.3924L48.7457 70.7682ZM68.5508 55.3406C70.1046 49.0202 72.4246 41.3627 72.9195 33.6596C73.4269 25.8152 72.0879 17.6238 66.2173 10.0874L61.9769 13.3905C66.8171 19.604 68.0009 26.3717 67.5573 33.3126C67.099 40.392 64.9847 47.3398 63.3306 54.0563L68.5508 55.3406ZM66.2173 10.0874C60.2453 2.4209 50.7268 -0.847756 42.2346 1.16617C33.5554 3.2258 26.4667 10.6509 25.1479 23.1973L30.491 23.759C31.603 13.1861 37.2944 7.86241 43.4742 6.39611C49.8354 4.8885 57.2403 7.30986 61.9769 13.3905L66.2173 10.0874ZM63.3306 54.0563C62.7575 56.3877 62.2332 58.4494 61.534 60.1933C60.8348 61.9371 60.0751 63.0785 59.1987 63.7611L62.5018 68.0014C64.4524 66.482 65.6667 64.3324 66.5256 62.1871C67.3851 60.0368 67.9902 57.6123 68.5508 55.3406L63.3306 54.0563ZM48.7778 65.3924C45.1469 65.3728 41.5388 65.4581 37.7343 65.3557L37.5919 70.7356C41.4422 70.8387 45.3599 70.7484 48.7457 70.7682L48.7778 65.3924ZM20.0748 62.1786C15.9769 60.4309 12.3972 57.6588 9.67971 54.1285L5.4394 57.4316C9.04636 62.062 13.3319 65.1145 17.9379 67.109L20.0748 62.1786Z" fill="url(#paint0_linear_97_4965)" fill-opacity="0.2"/>
<defs>
<linearGradient id="paint0_linear_97_4965" x1="21.2886" y1="15.0942" x2="62.5018" y2="68.0014" gradientUnits="userSpaceOnUse">
<stop stop-color="#006E39"/>
<stop offset="1" stop-color="#BFD630"/>
</linearGradient>
</defs>
</svg>
